<?xml version="1.0" encoding="UTF-8" standalone="no" ?>
<!DOCTYPE svg PUBLIC "-//W3C//DTD SVG 1.1//EN" "http://www.w3.org/Graphics/SVG/1.1/DTD/svg11.dtd">
<svg xmlns="http://www.w3.org/2000/svg" xmlns:xlink="http://www.w3.org/1999/xlink" version="1.1" width="32" height="32" viewBox="0 0 1024 1024" xml:space="preserve">
<desc>Created with Fabric.js 4.6.0</desc>
<defs>
</defs>
<g transform="matrix(1 0 0 1 523.03 534.91)" id="RKCmHRxYed6agBnHXneWD"  >
<g style="" vector-effect="non-scaling-stroke"   >
		<g transform="matrix(2.43 0 0 1.92 103.99 -142.16)" id="knBrBWcarmGN7NABgXpgh"  >
<path style="stroke: rgb(95,150,117); stroke-width: 0; stroke-dasharray: none; stroke-linecap: butt; stroke-dashoffset: 0; stroke-linejoin: miter; stroke-miterlimit: 4; fill: rgb(0,0,0); fill-rule: nonzero; opacity: 1;" vector-effect="non-scaling-stroke"  transform=" translate(0, 0)" d="M 0 -94.33962 C 52.07547 -94.33962 94.33962 -52.075469999999996 94.33962 0 C 94.33962 52.07547 52.075469999999996 94.33962 0 94.33962 C -52.07547 94.33962 -94.33962 52.075469999999996 -94.33962 0 C -94.33962 -52.07547 -52.075469999999996 -94.33962 0 -94.33962 z" stroke-linecap="round" />
</g>
		<g transform="matrix(1.52 0 0 1.51 -194.75 -44.32)" id="BYrp1iAyQsBvGijcGd5up"  >
<path style="stroke: rgb(95,150,117); stroke-width: 0; stroke-dasharray: none; stroke-linecap: butt; stroke-dashoffset: 0; stroke-linejoin: miter; stroke-miterlimit: 4; fill: rgb(0,0,0); fill-rule: nonzero; opacity: 1;" vector-effect="non-scaling-stroke"  transform=" translate(0, 0)" d="M 0 -94.33962 C 52.07547 -94.33962 94.33962 -52.075469999999996 94.33962 0 C 94.33962 52.07547 52.075469999999996 94.33962 0 94.33962 C -52.07547 94.33962 -94.33962 52.075469999999996 -94.33962 0 C -94.33962 -52.07547 -52.075469999999996 -94.33962 0 -94.33962 z" stroke-linecap="round" />
</g>
		<g transform="matrix(2.01 0 0 1.95 311.24 139.54)" id="3fazqobPQREgC8XBILt5f"  >
<path style="stroke: rgb(95,150,117); stroke-width: 0; stroke-dasharray: none; stroke-linecap: butt; stroke-dashoffset: 0; stroke-linejoin: miter; stroke-miterlimit: 4; fill: rgb(0,0,0); fill-rule: nonzero; opacity: 1;" vector-effect="non-scaling-stroke"  transform=" translate(0, 0)" d="M 0 -94.33962 C 52.07547 -94.33962 94.33962 -52.075469999999996 94.33962 0 C 94.33962 52.07547 52.075469999999996 94.33962 0 94.33962 C -52.07547 94.33962 -94.33962 52.075469999999996 -94.33962 0 C -94.33962 -52.07547 -52.075469999999996 -94.33962 0 -94.33962 z" stroke-linecap="round" />
</g>
		<g transform="matrix(1.58 0 0 1.85 -351.36 148.58)" id="JA2JrDUie4Bid2TK0DgQl"  >
<path style="stroke: rgb(95,150,117); stroke-width: 0; stroke-dasharray: none; stroke-linecap: butt; stroke-dashoffset: 0; stroke-linejoin: miter; stroke-miterlimit: 4; fill: rgb(0,0,0); fill-rule: nonzero; opacity: 1;" vector-effect="non-scaling-stroke"  transform=" translate(0, 0)" d="M 0 -94.33962 C 52.07547 -94.33962 94.33962 -52.075469999999996 94.33962 0 C 94.33962 52.07547 52.075469999999996 94.33962 0 94.33962 C -52.07547 94.33962 -94.33962 52.075469999999996 -94.33962 0 C -94.33962 -52.07547 -52.075469999999996 -94.33962 0 -94.33962 z" stroke-linecap="round" />
</g>
		<g transform="matrix(3.54 0 0 1.84 -1.37 149.93)" id="RmfJ8VIZdyOoEfbrhWkXM"  >
<path style="stroke: rgb(5,82,184); stroke-width: 0; stroke-dasharray: none; stroke-linecap: butt; stroke-dashoffset: 0; stroke-linejoin: miter; stroke-miterlimit: 4; fill: rgb(0,0,0); fill-rule: nonzero; opacity: 1;" vector-effect="non-scaling-stroke"  transform=" translate(0, 0)" d="M -94.33962 -94.33962 L 94.33963 -94.33962 L 94.33963 94.33963 L -94.33962 94.33963 z" stroke-linecap="round" />
</g>
</g>
</g>
<g transform="matrix(1 0 0 1 525.91 702.81)" id="kt8_7BeRkpPZM7SqnfQXu"  >
<path style="stroke: rgb(0,0,0); stroke-width: 0; stroke-dasharray: none; stroke-linecap: butt; stroke-dashoffset: 0; stroke-linejoin: miter; stroke-miterlimit: 4; fill: rgb(255,255,255); fill-rule: nonzero; opacity: 1;" vector-effect="non-scaling-stroke"  transform=" translate(0, 0)" d="M 58.55676 -159.97873 L 58.55676 14.222059999999999 L 145.79983 14.222059999999999 L 0.04315999999997189 159.97873 L -145.79983000000001 14.222059999999999 L -59.93154000000001 14.222059999999999 L -59.93154000000001 -159.97873 C -59.93154000000001 -159.97873 58.94543999999999 -157.60780000000003 58.55675999999998 -159.97873" stroke-linecap="round" />
</g>
</svg>